<svg width="960" height="290" viewBox="0 0 960 290" xmlns="http://www.w3.org/2000/svg" font-family="Apple SD Gothic Neo, sans-serif">
<rect width="960" height="290" fill="#ffffff"/>
<defs><marker id="tm2" markerWidth="9" markerHeight="9" refX="7" refY="4.5" orient="auto"><path d="M0,0 L9,4.5 L0,9 z" fill="#9AA6B8"/></marker></defs>
<line x1="80" y1="147.0" x2="880" y2="147.0" stroke="#9AA6B8" stroke-width="2.4" marker-end="url(#tm2)"/>
<line x1="135" y1="137.0" x2="135" y2="115.0" stroke="#2C4A78" stroke-width="1.4" stroke-dasharray="4 3"/>
<circle cx="135" cy="147.0" r="8" fill="#2C4A78"/>
<rect x="19" y="19" width="232" height="96" rx="9" fill="#FFFFFF" stroke="#2C4A78" stroke-width="1.7"/>
<text x="135" y="42" font-size="13.5" fill="#8A94A6" text-anchor="middle">2026.09 ~ 11</text>
<text x="135" y="64" font-size="16.5" fill="#2C4A78" text-anchor="middle" font-weight="700">개발 및 테스트</text>
<text x="135" y="87" font-size="13" fill="#6B7688" text-anchor="middle">유저의 수요를 확인하고</text>
<text x="135" y="104" font-size="13" fill="#6B7688" text-anchor="middle">문제점을 개선</text>
<line x1="478" y1="157.0" x2="478" y2="179.0" stroke="#243B5E" stroke-width="1.4" stroke-dasharray="4 3"/>
<circle cx="478" cy="147.0" r="8" fill="#243B5E"/>
<rect x="362" y="179" width="232" height="79" rx="9" fill="#FFFFFF" stroke="#243B5E" stroke-width="1.7"/>
<text x="478" y="202" font-size="13.5" fill="#8A94A6" text-anchor="middle">2026.12 ~ 2027.02</text>
<text x="478" y="224" font-size="16.5" fill="#243B5E" text-anchor="middle" font-weight="700">출시</text>
<text x="478" y="247" font-size="13" fill="#6B7688" text-anchor="middle">빠르게 유저를 확보</text>
<line x1="820" y1="137.0" x2="820" y2="115.0" stroke="#C0392B" stroke-width="1.4" stroke-dasharray="4 3"/>
<circle cx="820" cy="147.0" r="8" fill="#C0392B"/>
<rect x="704" y="19" width="232" height="96" rx="9" fill="#FDECEA" stroke="#C0392B" stroke-width="1.7"/>
<text x="820" y="42" font-size="13.5" fill="#8A94A6" text-anchor="middle">2027.03 ~</text>
<text x="820" y="64" font-size="16.5" fill="#C0392B" text-anchor="middle" font-weight="700">확장</text>
<text x="820" y="87" font-size="13" fill="#6B7688" text-anchor="middle">실제 호가가 모여</text>
<text x="820" y="104" font-size="13" fill="#6B7688" text-anchor="middle">데이터 가치가 급증</text>
</svg>